# xmcd
#
# Track frame offsets: 
#        150
#        20780
#        33623
#        53940
#        66992
#        79535
#        96487
#        110751
#        126129
#        134074
#        148136
#        169310
#        183671
#        200031
#        211578
#        226873
#        245093
#        256396
#        276595
#        293318
#
# Disc length: 4183 seconds
#
# Revision: 0
# Processed by: cddbd v1.5.2PL0 Copyright (c) Steve Scherf et al.
# Submitted via: ExactAudioCopy v1.3
#
DISCID=43105514
DTITLE=Eric Lindell - The Best Of Eric Lindell
DYEAR=2015
DGENRE=Blues Rock
TTITLE0=Lay Back Down
TTITLE1=Casanova
TTITLE2=It's My Pleasure
TTITLE3=Low On Cash
TTITLE4=Josephine
TTITLE5=Tried and True
TTITLE6=If Love Can't Find a Way
TTITLE7=Dirty Bird
TTITLE8=Lazy Days
TTITLE9=Country Livin'
TTITLE10=Uncle John
TTITLE11=Feel Like I Do
TTITLE12=Mind Your Business
TTITLE13=The Look
TTITLE14=See Me Through
TTITLE15=It's a Pity
TTITLE16=This Love Is Gonna Last
TTITLE17=All Alone
TTITLE18=Raw Doggin'
TTITLE19=Give It Time
EXTD=
EXTT0=
EXTT1=
EXTT2=
EXTT3=
EXTT4=
EXTT5=
EXTT6=
EXTT7=
EXTT8=
EXTT9=
EXTT10=
EXTT11=
EXTT12=
EXTT13=
EXTT14=
EXTT15=
EXTT16=
EXTT17=
EXTT18=
EXTT19=
PLAYORDER=
